<svg version="1" xmlns="http://www.w3.org/2000/svg" viewBox="0 0 512 512"><path d="M391 79H406V94H391zM391 54H406V69H391zM391 104H406V185H391zM352 79H367V154H352zM504.5 446.354c-23.397 0-34.813-4.594-46.899-9.458-12.879-5.183-26.196-10.542-52.498-10.542s-39.619 5.359-52.498 10.542c-12.086 4.864-23.502 9.458-46.898 9.458-23.397 0-34.813-4.594-46.899-9.458-12.879-5.183-26.197-10.542-52.499-10.542-26.304 0-39.622 5.359-52.502 10.542-10.716 4.313-20.913 8.41-39.392 9.284l.087-67.6-15-.02-.087 67.62c-18.492-.872-28.691-4.971-39.411-9.285-12.88-5.183-26.198-10.542-52.502-10.542H0V512h512v-65.646H504.5zM15 497v-55.476c18.489.873 28.684 4.975 39.402 9.288 12.88 5.183 26.198 10.542 52.501 10.542 26.304 0 39.622-5.359 52.502-10.542 12.087-4.864 23.504-9.458 46.902-9.458 23.397 0 34.813 4.594 46.899 9.458 12.879 5.183 26.197 10.542 52.499 10.542s39.619-5.359 52.498-10.542c12.086-4.864 23.502-9.458 46.898-9.458s34.813 4.594 46.898 9.458c11.594 4.665 23.542 9.474 44.999 10.388V497H15z"/><path d="M417.518 456.688l-1.131 14.957c16.143 1.22 25.602 5.026 35.614 9.056 6.924 2.786 14.082 5.667 23.438 7.716l3.209-14.652c-8.129-1.78-14.403-4.306-21.046-6.979C446.97 462.507 435.976 458.083 417.518 456.688zM32.843 471.574c4.385.935 8.633 2.173 13.367 3.898l5.135-14.094c-5.406-1.97-10.292-3.392-15.377-4.475L32.843 471.574zM55.283 479.018c4.92 1.978 9.424 3.743 14.724 5.331l4.305-14.369c-4.694-1.406-8.861-3.042-13.435-4.88L55.283 479.018zM153.806 464.748c-12.087 4.863-23.503 9.458-46.901 9.458-8.875-.001-16.604-.662-23.627-2.021l-2.85 14.727c7.974 1.543 16.633 2.293 26.476 2.294 26.305 0 39.623-5.359 52.503-10.543 4.772-1.921 9.28-3.734 14.465-5.279l-4.281-14.376C163.734 460.752 158.688 462.783 153.806 464.748zM125 312H140V327H125zM125 262H140V277H125zM125 287H140V302H125zM39 71H54V86H39zM39 46H54V61H39zM39 96H54V278H39zM347.72 246.115l-11.481 32.482 14.143 4.998 8.541-24.166c.916 1.465 1.991 2.859 3.263 4.131l.001.001c4.542 4.542 10.509 6.813 16.476 6.813 5.967 0 11.934-2.271 16.477-6.813 9.083-9.085 9.083-23.866-.001-32.952-1.093-1.093-2.272-2.047-3.51-2.877l23.476-6.938-4.252-14.385-33.109 9.784-24.997-24.998-15.275-35.61-13.785 5.914 13.841 32.268-12.182 12.182-32.268-13.841-5.914 13.785 35.61 15.274L347.72 246.115zM372.788 241.222l.01-.01c3.239-3.232 8.5-3.229 11.734.004 3.237 3.237 3.237 8.503.001 11.739-3.236 3.236-8.503 3.236-11.739 0C369.559 249.72 369.558 244.457 372.788 241.222zM346.422 206.086l20.14 20.14-8.754 8.764-20.145-20.146L346.422 206.086z"/><path d="M15 15L141.361 15 141.361 134.769 156.361 134.769 156.361 15 186.049 15 224.161 123.366 160.395 219.249 183.403 373.905 176.361 414.274 191.139 416.853 198.597 374.095 176.08 222.751 240.793 125.444 196.674 0 0 0 0 413.854 15 413.854z"/></svg>