<svg version="1" xmlns="http://www.w3.org/2000/svg" viewBox="0 0 512 512"><path d="M391 79h15v15h-15zM391 54h15v15h-15zM391 104h15v81h-15zM352 79h15v75h-15zM505 446c-24 0-35-4-47-9-13-5-27-11-53-11s-40 6-52 11-24 9-47 9c-24 0-35-4-47-9-13-5-26-11-53-11-26 0-39 6-52 11-11 4-21 8-40 9l1-67h-15l-1 67c-18-1-28-5-39-9-13-5-26-11-52-11H0v86h512v-66h-7zM15 497v-55c18 0 29 4 39 9 13 5 27 10 53 10s40-5 52-10 24-10 47-10c24 0 35 5 47 10 13 5 26 10 53 10s39-5 52-10c12-5 24-10 47-10s35 5 47 10c12 4 24 9 45 10v36H15z"/><path d="M418 457l-2 15c17 1 26 5 36 9l23 7 4-14-21-7c-11-4-22-9-40-10zM33 472l13 3 5-14-15-4-3 15zM55 479l15 5 4-14-13-5-6 14zM154 465c-12 5-24 9-47 9-9 0-17 0-24-2l-3 15a139 139 0 0 0 79-8l15-6-4-14-16 6zM125 312h15v15h-15zM125 262h15v15h-15zM125 287h15v15h-15zM39 71h15v15H39zM39 46h15v15H39zM39 96h15v182H39zM348 246l-12 33 14 5 9-25 3 5a23 23 0 0 0 33 0 23 23 0 0 0-3-36l23-7-4-15-33 10-25-25-16-35-13 5 14 33-13 12-32-14-6 14 36 15 25 25zm25-5zm-27-35l21 20-9 9-20-20 8-9z"/><path d="M15 15h126v120h15V15h30l38 108-64 96 23 155-7 40 15 3 8-43-23-151 65-98L197 0H0v414h15z"/></svg>