<svg xmlns="http://www.w3.org/2000/svg" x="0px" y="0px" width="281.983px" height="281.983px" viewBox="0 0 281.983 281.983"><path d="M173.031 29.851c-58.7-7.3-140.1 2.5-165.4 65.9-10.6 26.4-12.9 63.9 11.2 84.9 28.3 24.6 65.6 19.7 100.6 21.1.8 16.101 5.6 33.2 10.5 48.2 1.7 5.3 7.9 5.5 11 1.4 6.201-8.2 8.9-18.801 11.5-28.601 1.3-5 4.899-12.8 4.6-18.7.7 0 1.3 0 2.101-.3 47-17.3 114.199-.399 122.199-66.5 7.7-62.899-54.199-100.7-108.3-107.399zm90.5 127.599c-14.7 33.2-78.5 23-107.7 34.1-3.1 1.2-4.3 4-4.199 6.601-7.301 1.3-8.101 10.399-9.601 16.5-1.4 5.5-2.7 11.3-4.6 16.899-3.2-12.8-5.9-25.8-11.1-37.6-1.2-2.7-4.5-2.2-6.1-.3-20.3-4.7-40-5-60.6-7.9-61.1-8.399-52.1-75.7-23.7-109.8 32.5-39 98.5-40.1 144.201-32.4 51.899 8.801 109.5 54.9 83.399 113.9z"/><path d="M90.331 91.25c-1.6-4.3-7.4-5.6-10-1.3-5 8.3-3.6 21.5-4.1 30.8-.3 5.1-.7 10.6-1 16.1-5.1.8-10.1 1.2-15.3 1.6 0-4.1-.1-8.2-.1-12.3 0-6.7.3-13.5.6-20.2.1-2.9.4-5.8.9-8.7.8-4.3 1.8-3.1-.9-1.8 3.4-1.7 3.6-7.6 0-9.3-21.3-9.6-12.4 67.3-11.7 77 .5 7 10.5 7 10.8 0 .3-5.101.3-10.101.3-15.2 5 .3 10.1.4 15.2.2.2 5.5.9 10.8 2.5 15.7.6 1.899 2.2 3.899 4.3 4.3 2.1.399 4.4.3 6.1-1 1.2-.9 1.3-2.2.8-3.101 1.1-3.899.3-7.8.1-12.199-.2-8.5.1-17.1.5-25.6.8-10.5 4.8-25 1-35zM125.131 92.25c-.1-.2-.3-.4-.4-.6-1.7-2.3-3.6-2.9-6.3-2.6-3.2.4-6.5.5-9.8.7-1.6-.9-3.9-.4-4.7 1.4-1.5 1.3-1.8 3.5-1.1 5.2-3.6 22.5-3.9 46.1-4.1 68.699 0 3.7 2.9 5.9 6.2 6.2 8.5.9 19.8-.7 19.1-11.7-.2-3.399-3.7-5.8-6.9-4-2.4 1.4-4 2.4-5.8 2.9.1-4 .2-8 .4-12 1.4.2 2.8.3 4.1.5 2.8.4 4.7-.3 6.4-2.6l.1-.101c1-1.3 1-4.1 0-5.399l-.1-.1c-1.7-2.2-3.6-3-6.4-2.6-1.2.2-2.5.3-3.8.4.4-12.5.5-25-.9-37.2 2.4.1 4.9.2 7.2.6 2.7.4 4.7-.3 6.3-2.6.1-.2.3-.4.4-.6.9-1.099.9-3.299.1-4.499zM155.331 154.25c-2.6-.8-5.3-1.2-8-1.7-.399-19.299-1.699-38.899-4-58-.6-5.2-7.5-5.2-8.1 0-2.3 20.9-.6 42.4-.6 63.3 0 2.899 2 5.399 4.7 6.199 5.4 1.5 10.4 2.7 15.9 1.101 5.6-1.6 5.401-9.299.1-10.9zM183.632 158.55c-1.301.601-2.4 1.4-3.5 1.9.1-21.8.699-43.9-4.5-65.2-1-4.2-7.601-3.3-7.5 1 .699 23.6-.4 47-.801 70.6 0 3 2 5.199 4.7 6.199 8 3 15.5 1.301 19.101-7 2.199-4.999-2.2-9.999-7.5-7.499zM220.731 98.65c-3.9-5.3-12-2-11.8 3.2h-.601c-2.8-.1-4.1 2.4-5.3 4.4-3.899 6.7-5.8 15.2-7.6 22.6-2.9 11.9-6.3 31.8 6.5 39.199 14.8 8.601 24.6-10.8 26.2-22.1 2.101-13.999 1.401-35.399-7.399-47.299zm-5.9 50.4c-.6 2.5-4.699 11.4-7.8 6.5-5-8 .101-24.199 2-32.5 1-4.3 2.101-8.6 3.3-12.9 0-.1 0-.2.101-.3 2.8 7 3.5 15.5 3.8 22.5.299 5.501-.1 11.2-1.401 16.7z"/></svg>