<svg height="683" viewBox="0 -1 512 512" width="683" xmlns="http://www.w3.org/2000/svg"><path d="M356.273438 342.5c-15.042969 10.46875-27.632813 24.386719-36.542969 40.367188-40.652344-24.664063-90.101563-25.117188-130.097657-4.507813-24.464843-39.734375-70.917968-62.851563-118.957031-56.210937 2.941407-29.25-4.707031-59.070313-23.25-83.886719 18.523438-24.792969 26.191407-54.59375 23.25-83.890625 28.019531 3.878906 57.390625-2.128906 82.375-18.539063 3.46875-2.277343 4.429688-6.933593 2.152344-10.402343s-6.933594-4.433594-10.402344-2.15625c-22.589843 14.835937-49.40625 20.015624-74.859375 15.792968-8.320312-1.378906-15.601562 5.625-14.539062 13.984375 3.46875 27.148438-3.558594 54.90625-21.027344 77.550781-3.480469 4.507813-3.480469 10.808594 0 15.320313 28.601562 37.070313 20.925781 75.679687 20.925781 79.160156 0 7.6875 6.917969 13.660157 14.636719 12.375 43.5625-7.222656 86.285156 13.765625 107.941406 50.503907 3.382813 5.746093 10.777344 7.960937 16.824219 4.710937 36.523437-19.644531 82.3125-19.148437 119.257813 4.296875 6.089843 3.867188 14.324218 1.804688 17.769531-4.714844 7.847656-14.863281 19.304687-27.804687 33.125-37.421875 3.40625-2.367187 4.242187-7.050781 1.875-10.457031-2.371094-3.40625-7.050781-4.242188-10.457031-1.875zm0 0M389.71875 342.058594c28.519531-10.109375 51.160156-4.429688 54.425781-4.429688 7.484375 0 13.414063-6.570312 12.453125-14.160156-3.46875-27.144531 3.558594-54.902344 21.027344-77.546875 3.480469-4.507813 3.480469-10.808594 0-15.320313-28.601562-37.070312-20.925781-75.679687-20.925781-79.160156 0-7.691406-6.921875-13.660156-14.636719-12.375-43.585938 7.226563-86.300781-13.792968-107.941406-50.503906-3.386719-5.75-10.78125-7.960938-16.820313-4.710938-36.519531 19.640626-82.308593 19.152344-119.261719-4.296874-6.089843-3.871094-14.324218-1.804688-17.769531 4.714843-3.917969 7.425781-8.738281 14.386719-14.320312 20.691407-2.75 3.105468-2.460938 7.851562.644531 10.605468 3.105469 2.75 7.855469 2.460938 10.605469-.648437 5.777343-6.523438 10.839843-13.667969 15.074219-21.265625 40.652343 24.667968 90.105468 25.117187 130.09375 4.511718 24.464843 39.726563 70.921874 62.855469 118.957031 56.207032-2.933594 29.261718 4.710937 59.074218 23.253906 83.890625-18.523437 24.789062-26.195313 54.59375-23.253906 83.886719-18.515625-2.558594-38.007813-.851563-56.621094 5.746093-9.273437 3.289063-4.445313 17.523438 5.015625 14.164063zm0 0M38.550781 122.148438c2.347657 3.421874 7.023438 4.292968 10.445313 1.945312 3.421875-2.34375 4.292968-7.019531 1.949218-10.441406l-10.945312-15.964844c-2.347656-3.421875-7.023438-4.296875-10.445312-1.949219-3.421876 2.347657-4.292969 7.023438-1.949219 10.445313zm0 0M176.753906 53.917969c.71875 4.089843 4.609375 6.820312 8.695313 6.105469 4.085937-.714844 6.820312-4.609376 6.105469-8.695313l-6.210938-35.480469c-.714844-4.085937-4.609375-6.820312-8.691406-6.101562-4.089844.714844-6.820313 4.605468-6.105469 8.695312zm0 0M333.164062 64.570312c2.875 0 5.625-1.664062 6.867188-4.460937l17.738281-39.914063c1.6875-3.792968-.019531-8.230468-3.8125-9.914062-3.792969-1.6875-8.230469.019531-9.914062 3.8125l-17.742188 39.914062c-2.214843 4.988282 1.46875 10.5625 6.863281 10.5625zm0 0M461.773438 128.433594c2.28125 0 4.535156-1.035156 6.007812-2.996094l10.949219-14.554688c2.492187-3.316406 1.828125-8.023437-1.488281-10.519531-3.316407-2.492187-8.027344-1.828125-10.519532 1.488281l-10.945312 14.554688c-3.738282 4.96875-.140625 12.027344 5.996094 12.027344zm0 0M467.972656 359.65625c-2.34375-3.421875-7.019531-4.292969-10.441406-1.949219-3.421875 2.347657-4.292969 7.023438-1.949219 10.445313l10.945313 15.964844c2.347656 3.421874 7.023437 4.292968 10.445312 1.949218 3.421875-2.347656 4.292969-7.023437 1.949219-10.445312zm0 0M335.246094 423.808594c-.714844-4.085938-4.609375-6.824219-8.695313-6.101563-4.085937.714844-6.820312 4.605469-6.105469 8.691407l6.210938 35.480468c.636719 3.648438 3.808594 6.21875 7.390625 6.21875 4.6875 0 8.207031-4.226562 7.40625-8.808594zm0 0M181.882812 413.804688c-3.792968-1.683594-8.230468.023437-9.914062 3.816406l-17.738281 39.914062c-2.21875 4.984375 1.46875 10.5625 6.859375 10.5625 2.878906 0 5.625-1.664062 6.867187-4.460937l17.742188-39.914063c1.683593-3.792968-.023438-8.230468-3.816407-9.917968zm0 0M39.269531 378.871094c2.28125 0 4.53125-1.03125 6.007813-2.996094l10.945312-14.550781c2.496094-3.316407 1.828125-8.027344-1.484375-10.519531-3.316406-2.496094-8.027343-1.828126-10.519531 1.488281l-10.945312 14.550781c-3.738282 4.96875-.140626 12.027344 5.996093 12.027344zm0 0M26.792969 238.261719c0-4.148438-3.363281-7.515625-7.511719-7.515625h-11.769531c-4.148438 0-7.511719 3.367187-7.511719 7.515625 0 4.148437 3.363281 7.511719 7.511719 7.511719h11.769531c4.148438 0 7.511719-3.363282 7.511719-7.511719zm0 0M44.246094 62.21875l-3.371094 19.652344c-1.28125 7.546875 4.550781 14.242187 12.007812 14.242187 3.898438 0 4.28125-.679687 23.3125-10.683593 19.042969 10.011718 19.421876 10.683593 23.308594 10.683593 7.496094 0 13.296875-6.746093 12.007813-14.253906l-3.367188-19.640625 14.269531-13.910156c7.140626-6.960938 3.375-19.3125-6.753906-20.78125l-19.71875-2.867188-8.820312-17.871094c-4.46875-9.054687-17.386719-9.050781-21.851563 0l-8.820312 17.871094-19.722657 2.863282c-10.128906 1.472656-13.890624 13.824218-6.75 20.78125zm31.945312-43.621094c11.128906 22.546875 6.917969 19.378906 31.613282 22.96875-18.035157 17.578125-16.285157 12.605469-12.074219 37.160156-22.265625-11.707031-17.015625-11.597656-39.074219 0 4.207031-24.519531 6.054688-19.492187-12.074219-37.160156 24.882813-3.617187 20.570313-.59375 31.609375-22.96875zm0 0"/><path d="M361.976562 70.695312l14.273438 13.910157c-3.632812 21.175781-3.550781 20.28125-3.550781 21.734375 0 6.703125 5.46875 12.160156 12.1875 12.160156 3.898437 0 4.28125-.679688 23.308593-10.683594 19.046876 10.011719 19.425782 10.683594 23.3125 10.683594 7.496094 0 13.296876-6.742188 12.007813-14.253906l-3.371094-19.640625 14.269531-13.910157c2.378907-2.316406 3.6875-5.40625 3.6875-8.699218 0-6.125-4.390624-11.207032-10.4375-12.082032l-19.722656-2.867187-8.816406-17.871094c-4.46875-9.054687-17.386719-9.050781-21.851562 0l-8.820313 17.871094-19.722656 2.867187c-10.128907 1.46875-13.890625 13.820313-6.753907 20.78125zm46.21875-29.710937c11.128907 22.546875 6.921876 19.378906 31.613282 22.96875-18.0625 17.605469-16.285156 12.625-12.074219 37.160156-22.167969-11.65625-16.886719-11.664062-39.074219 0 4.210938-24.542969 5.96875-19.574219-12.074218-37.160156 24.882812-3.617187 20.566406-.59375 31.609374-22.96875zm0 0M111.808594 420.097656l-19.722656-2.863281-8.820313-17.871094c-4.464844-9.054687-17.382813-9.050781-21.851563 0l-8.816406 17.871094-19.722656 2.863281c-10.128906 1.472656-13.890625 13.820313-6.753906 20.78125l14.273437 13.910156c-3.632812 21.175782-3.546875 20.289063-3.546875 21.738282 0 9.078125 9.703125 15.03125 17.855469 10.75l17.640625-9.273438c19.046875 10.011719 19.425781 10.683594 23.308594 10.683594 7.480468 0 13.300781-6.730469 12.007812-14.253906l-3.371094-19.640625 14.273438-13.910157c7.140625-6.960937 3.375-19.3125-6.753906-20.785156zm-19.929688 51.199219c-22.257812-11.699219-16.988281-11.609375-39.074218 0 4.21875-24.589844 6.011718-19.527344-12.074219-37.160156 24.882812-3.613281 20.570312-.589844 31.613281-22.964844 11.125 22.546875 6.917969 19.378906 31.609375 22.964844-18.019531 17.566406-16.292969 12.574219-12.074219 37.160156zm0 0M469.800781 442.238281l-19.722656-2.863281-8.816406-17.871094c-4.46875-9.054687-17.386719-9.050781-21.851563 0l-8.820312 17.871094-19.722656 2.863281c-10.128907 1.472657-13.890626 13.824219-6.75 20.78125l14.269531 13.910157c-3.699219 21.558593-3.546875 20.300781-3.546875 21.734374 0 9.085938 9.707031 15.039063 17.855468 10.753907l17.640626-9.273438c19.046874 10.011719 19.425781 10.683594 23.308593 10.683594 7.496094 0 13.300781-6.746094 12.007813-14.253906l-3.367188-19.644531 14.269532-13.90625c7.140624-6.960938 3.375-19.3125-6.753907-20.785157zm-19.929687 51.203125c-22.25-11.699218-16.988282-11.613281-39.074219 0 4.207031-24.519531 6.054687-19.492187-12.074219-37.160156 24.882813-3.617188 20.570313-.59375 31.613282-22.96875 11.125 22.546875 6.914062 19.378906 31.609374 22.96875-18.019531 17.5625-16.292968 12.566406-12.074218 37.160156zm0 0M504.488281 230.746094h-11.769531c-4.148438 0-7.511719 3.367187-7.511719 7.515625 0 4.148437 3.363281 7.511719 7.511719 7.511719h11.769531c4.148438 0 7.511719-3.363282 7.511719-7.511719 0-4.148438-3.363281-7.515625-7.511719-7.515625zm0 0M84.464844 215.738281v42.082031c0 20.371094 11.386718 32.058594 31.242187 32.058594s31.238281-11.6875 31.238281-32.058594v-42.082031c0-20.285156-11.382812-31.917969-31.238281-31.917969s-31.242187 11.632813-31.242187 31.917969zm47.511718 0v42.082031c0 11.957032-5.320312 17.765626-16.269531 17.765626s-16.273437-5.808594-16.273437-17.765626v-42.082031c0-11.859375 5.324218-17.628906 16.273437-17.628906s16.269531 5.765625 16.269531 17.628906zm0 0M165.503906 190.082031v67.738281c0 20.371094 11.488282 32.058594 31.511719 32.058594 20.027344 0 31.515625-11.6875 31.515625-32.058594v-67.738281c0-8.316406-14.972656-8.457031-14.972656 0v67.738281c0 11.957032-5.410156 17.765626-16.542969 17.765626-11.128906 0-16.539063-5.808594-16.539063-17.765626v-67.738281c0-8.464843-14.972656-8.3125-14.972656 0zm0 0M278.601562 198.109375c10.203126 0 15.585938 4.5625 16.007813 13.636719.214844 2.988281 2.292969 6.183594 7.476563 6.183594 6.710937 0 7.484374-4.8125 7.484374-8.433594 0-12.367188-9.691406-25.675782-30.96875-25.675782-19.730468 0-31.511718 11.933594-31.511718 31.917969v42.082031c0 20.371094 11.335937 32.058594 31.105468 32.058594 20.597657 0 31.375-13.054687 31.375-25.949218 0-3.675782-.773437-8.570313-7.484374-8.570313-4.1875 0-6.976563 2.304687-7.460938 6.164063-.78125 6.265624-1.757812 14.0625-15.480469 14.0625-11.816406 0-17.085937-5.476563-17.085937-17.765626v-42.082031c0-12.027343 5.257812-17.628906 16.542968-17.628906zm0 0M387.761719 282.527344v-92.445313c0-8.316406-14.96875-8.457031-14.96875 0v37.585938h-33.222657v-37.585938c0-8.316406-14.96875-8.457031-14.96875 0v92.445313c0 8.738281 14.96875 8.664062 14.96875 0v-41.113282h33.222657v41.113282c0 8.738281 14.96875 8.664062 14.96875 0zm0 0M417.898438 289.054688c4.9375 0 9.113281-4.234376 9.113281-9.25 0-5.175782-4.089844-9.382813-9.113281-9.382813-5.1875 0-9.25 4.121094-9.25 9.382813 0 5.101562 4.148437 9.25 9.25 9.25zm0 0M417.828125 261.511719c4.148437 0 7.511719-3.363281 7.511719-7.511719v-62.4375c0-4.148438-3.363282-7.511719-7.511719-7.511719s-7.511719 3.363281-7.511719 7.511719v62.4375c0 4.148438 3.363282 7.511719 7.511719 7.511719zm0 0"/></svg>