<svg height="683" viewBox="0 -1 512 512" width="683" xmlns="http://www.w3.org/2000/svg"><path d="M356 343c-15 10-27 24-36 40-41-25-90-25-130-5-25-39-71-62-119-56 3-29-5-59-24-84 19-25 27-54 24-84 28 4 57-2 82-18a8 8 0 1 0-8-13c-23 15-50 20-75 16-8-1-16 6-15 14 4 27-3 55-21 78-3 4-3 10 0 15 29 37 21 76 21 79 0 8 7 14 15 12 43-7 86 14 108 51 3 6 11 8 17 5 36-20 82-19 119 4 6 4 14 2 18-5 8-15 19-28 33-37a8 8 0 0 0-9-12zm0 0M390 342c28-10 51-4 54-4 8 0 14-7 13-15-4-27 3-54 21-77 3-5 3-11 0-15-29-37-21-76-21-80 0-7-7-13-15-12-44 7-86-14-108-50-3-6-11-8-17-5-36 19-82 19-119-4-6-4-14-2-18 4-4 8-8 15-14 21a8 8 0 0 0 11 10l15-21c41 24 90 25 130 4 25 40 71 63 119 56-3 30 5 59 24 84-19 25-27 55-24 84-18-2-38-1-56 6-10 3-5 17 5 14zm0 0M39 122a8 8 0 0 0 12-8L40 98a8 8 0 1 0-12 8zm0 0M177 54a8 8 0 0 0 15-3l-7-35a8 8 0 1 0-14 2zm0 0M333 65c3 0 6-2 7-5l18-40a8 8 0 1 0-14-6l-18 40c-2 5 2 11 7 11zm0 0M462 128l6-3 11-14a8 8 0 0 0-12-9l-11 14c-4 5 0 12 6 12zm0 0M468 360a8 8 0 1 0-12 8l11 16a8 8 0 0 0 12-8zm0 0M335 424a8 8 0 1 0-15 2l7 36a8 8 0 1 0 14-3zm0 0M182 414c-4-2-8 0-10 4l-18 40a8 8 0 0 0 14 6l18-40c1-4 0-9-4-10zm0 0M39 379c3 0 5-1 6-3l11-15a8 8 0 1 0-12-9l-11 15c-3 5 0 12 6 12zm0 0M27 238c0-4-4-7-8-7H8a8 8 0 0 0 0 15h11c4 0 8-4 8-8zm0 0M44 62l-3 20c-1 7 4 14 12 14 4 0 4-1 23-11 19 10 20 11 24 11 7 0 13-7 12-14l-4-20 14-14c8-7 4-19-6-20l-20-3-9-18c-4-9-17-9-22 0l-9 18-19 3c-10 1-14 13-7 20zm32-43c11 22 7 19 32 23-18 17-16 12-12 37-23-12-17-12-39 0 4-25 6-20-12-37 24-4 20-1 31-23zm0 0"/><path d="M362 71l14 14-3 21c0 7 5 13 12 13 4 0 4-1 23-11 19 10 20 11 24 11 7 0 13-7 12-15l-4-19 14-14c3-3 4-6 4-9 0-6-4-11-10-12l-20-3-9-18c-4-9-17-9-22 0l-9 18-19 3c-10 1-14 14-7 21zm46-30c11 23 7 19 32 23-18 18-16 13-12 37-22-12-17-12-39 0 4-24 6-19-12-37 24-4 20-1 31-23zm0 0M112 420l-20-3-9-18c-4-9-17-9-22 0l-8 18-20 3c-10 2-14 14-7 21l14 14-3 22c0 9 10 15 18 10l17-9c19 10 20 11 24 11 7 0 13-7 12-15l-4-19 15-14c7-7 3-19-7-21zm-20 51c-22-11-17-11-39 0 4-24 6-19-12-37 25-3 20 0 31-23 11 23 7 20 32 23-18 18-16 13-12 37zm0 0M470 442l-20-3-9-17c-4-10-17-10-22 0l-8 17-20 3c-10 2-14 14-7 21l14 14-3 22c0 9 10 15 18 10l17-9c19 10 20 11 24 11 7 0 13-7 12-14l-4-20 15-14c7-7 3-19-7-21zm-20 51c-22-11-17-11-39 0 4-24 6-19-12-37 25-3 20 0 31-23 11 23 7 20 32 23-18 18-16 13-12 37zm0 0M504 231h-11a8 8 0 0 0 0 15h11a8 8 0 0 0 0-15zm0 0M84 216v42c0 20 12 32 32 32s31-12 31-32v-42c0-21-11-32-31-32s-32 11-32 32zm48 0v42c0 12-5 18-16 18s-17-6-17-18v-42c0-12 6-18 17-18s16 6 16 18zm0 0M166 190v68c0 20 11 32 31 32s32-12 32-32v-68c0-8-15-8-15 0v68c0 12-6 18-17 18s-17-6-17-18v-68c0-8-14-8-14 0zm0 0M279 198c10 0 15 5 16 14 0 3 2 6 7 6 7 0 8-5 8-9 0-12-10-25-31-25-20 0-32 12-32 32v42c0 20 11 32 31 32 21 0 32-13 32-26 0-4-1-9-8-9-4 0-7 3-7 7-1 6-2 14-16 14-12 0-17-6-17-18v-42c0-12 5-18 17-18zm0 0M388 283v-93c0-8-15-8-15 0v38h-33v-38c0-8-15-8-15 0v93c0 8 15 8 15 0v-42h33v42c0 8 15 8 15 0zm0 0M418 289c5 0 9-4 9-9s-4-10-9-10-9 5-9 10 4 9 9 9zm0 0M418 262c4 0 7-4 7-8v-62a8 8 0 0 0-15 0v62c0 4 4 8 8 8zm0 0"/></svg>