<svg xmlns="http://www.w3.org/2000/svg" viewBox="0 0 512.012 512.012"><path d="M16.383 135.173h14.315v76.633c0 9.052 7.331 16.383 16.383 16.383 9.043 0 16.383-7.331 16.383-16.383v-76.633h14.333c9.043 0 16.374-7.322 16.374-16.374s-7.331-16.383-16.383-16.383H16.383C7.339 102.416 0 109.755 0 118.799s7.339 16.374 16.383 16.374zM434.444 102.416c-9.052 0-16.383 7.331-16.383 16.383v93.007c0 9.052 7.331 16.383 16.383 16.383s16.392-7.331 16.392-16.383v-20.788l33.342 32.52a16.33 16.33 0 0 0 11.44 4.65 16.39 16.39 0 0 0 11.741-4.934c6.319-6.47 6.186-16.844-.293-23.163l-45.288-44.178 41.693-22.728c7.934-4.331 10.863-14.288 6.532-22.231-4.331-7.943-14.279-10.845-22.222-6.541l-36.945 20.142v-5.756c-.001-9.053-7.34-16.383-16.392-16.383zM303.391 205.904l-35.925-93.007a16.379 16.379 0 0 0-15.282-10.481 16.378 16.378 0 0 0-15.282 10.481l-35.916 93.007c-3.257 8.44.941 17.927 9.381 21.184a16.286 16.286 0 0 0 5.902 1.109c6.567 0 12.78-3.985 15.273-10.49l1.576-4.082h38.123l1.577 4.082c3.266 8.449 12.744 12.646 21.184 9.381 8.448-3.257 12.646-12.744 9.389-21.184zM245.77 180.86l6.405-16.587 6.408 16.587H245.77zM406.497 118.799c0-9.052-7.339-16.383-16.392-16.383s-16.383 7.331-16.383 16.383v39.945l-33.555-49.184c-4.056-5.919-11.493-8.537-18.371-6.416a16.376 16.376 0 0 0-11.546 15.655v93.007c0 9.052 7.331 16.383 16.383 16.383s16.383-7.331 16.383-16.383v-39.945l33.564 49.184a16.386 16.386 0 0 0 13.525 7.153c1.615 0 3.239-.24 4.837-.737a16.384 16.384 0 0 0 11.555-15.655v-93.007zM177.627 228.188c9.052 0 16.383-7.331 16.383-16.383v-93.007c0-9.052-7.339-16.383-16.383-16.383s-16.383 7.331-16.383 16.383v30.121h-30.715v-30.121c0-9.052-7.339-16.383-16.383-16.383s-16.383 7.331-16.383 16.383v93.007c0 9.052 7.331 16.383 16.383 16.383s16.383-7.331 16.383-16.383v-30.121h30.715v30.121c.001 9.053 7.331 16.383 16.383 16.383zM149.61 383.496c9.052 0 16.392-7.331 16.383-16.383v-35.731l32.357-48.135c5.05-7.517 3.053-17.696-4.455-22.746-7.499-5.023-17.687-3.044-22.737 4.455l-21.548 32.047-21.539-32.047c-5.05-7.499-15.229-9.478-22.737-4.455-7.508 5.059-9.505 15.229-4.455 22.746l32.348 48.134v35.732c0 9.052 7.331 16.383 16.383 16.383zM354.163 383.496c23.296 0 50.506-16.471 50.515-62.886v-46.503c0-9.052-7.331-16.383-16.383-16.383s-16.383 7.331-16.383 16.383v46.503c0 13.747-3.088 30.13-17.741 30.13s-17.723-16.383-17.723-30.13v-46.503c0-9.052-7.339-16.383-16.392-16.383-9.052 0-16.392 7.331-16.392 16.383v46.503c.002 46.423 27.203 62.886 50.499 62.886zM246.983 257.723c-23.296 0-50.506 16.463-50.506 62.886 0 46.424 27.21 62.886 50.506 62.886s50.497-16.463 50.497-62.886-27.201-62.886-50.497-62.886zm0 93.016c-14.661 0-17.741-16.383-17.741-30.13s3.08-30.13 17.741-30.13c14.652 0 17.732 16.383 17.732 30.13s-3.08 30.13-17.732 30.13zM108.431 421.329H75.985c-23.829 0-43.22-19.373-43.22-43.193v-120.19c0-9.052-7.339-16.383-16.383-16.383-9.043 0-16.382 7.33-16.382 16.382v120.19c0 41.889 34.088 75.959 75.994 75.959h32.446c9.043 0 16.374-7.331 16.374-16.383s-7.331-16.382-16.383-16.382z"/><path d="M495.608 241.563c-9.052 0-16.383 7.331-16.383 16.383v120.19c0 23.811-19.382 43.193-43.22 43.193H244.401c-3.071 0-6.079.852-8.679 2.485l-67.625 42.253v-28.355c0-9.052-7.339-16.383-16.383-16.383-9.043 0-16.383 7.331-16.383 16.383v57.916a16.37 16.37 0 0 0 16.383 16.374c3.017 0 6.035-.825 8.679-2.485l88.712-55.423h186.901c41.906 0 75.994-34.07 75.994-75.959v-120.19c0-9.052-7.339-16.382-16.392-16.382zM16.392 92.37c9.043 0 16.383-7.331 16.383-16.383 0-23.82 19.382-43.211 43.22-43.211h360.021c23.829 0 43.22 19.382 43.22 43.211 0 9.043 7.331 16.374 16.383 16.374 9.043 0 16.383-7.331 16.392-16.374 0-41.898-34.088-75.976-75.994-75.976H75.994C34.088.011 0 34.09 0 75.987 0 85.03 7.348 92.37 16.392 92.37z"/></svg>