<svg version="1" xmlns="http://www.w3.org/2000/svg" viewBox="0 0 512 512"><path d="M16.383 135.173h14.315v76.633c0 9.052 7.331 16.383 16.383 16.383 9.043 0 16.383-7.331 16.383-16.383v-76.633h14.333c9.043 0 16.374-7.322 16.374-16.374s-7.331-16.383-16.383-16.383H16.383C7.339 102.416 0 109.755 0 118.799S7.339 135.173 16.383 135.173zM434.444 102.416c-9.052 0-16.383 7.331-16.383 16.383v93.007c0 9.052 7.331 16.383 16.383 16.383 9.052 0 16.392-7.331 16.392-16.383v-20.788l33.342 32.52c3.186 3.106 7.313 4.65 11.44 4.65 4.26 0 8.529-1.651 11.741-4.934 6.319-6.47 6.186-16.844-.293-23.163l-45.288-44.178 41.693-22.728c7.934-4.331 10.863-14.288 6.532-22.231-4.331-7.943-14.279-10.845-22.222-6.541l-36.945 20.142v-5.756C450.835 109.746 443.496 102.416 434.444 102.416zM303.391 205.904l-35.925-93.007c-2.441-6.319-8.511-10.481-15.282-10.481-6.771 0-12.842 4.162-15.282 10.481l-35.916 93.007c-3.257 8.44.941 17.927 9.381 21.184 1.944.754 3.94 1.109 5.902 1.109 6.567 0 12.78-3.985 15.273-10.49l1.576-4.082h38.123l1.577 4.082c3.266 8.449 12.744 12.646 21.184 9.381C302.45 223.831 306.648 214.344 303.391 205.904zM245.77 180.86l6.405-16.587 6.408 16.587H245.77zM406.497 118.799c0-9.052-7.339-16.383-16.392-16.383s-16.383 7.331-16.383 16.383v39.945l-33.555-49.184c-4.056-5.919-11.493-8.537-18.371-6.416-6.869 2.121-11.546 8.466-11.546 15.655v93.007c0 9.052 7.331 16.383 16.383 16.383s16.383-7.331 16.383-16.383v-39.945l33.564 49.184c3.106 4.553 8.218 7.153 13.525 7.153 1.615 0 3.239-.24 4.837-.737 6.869-2.121 11.555-8.466 11.555-15.655V118.799zM177.627 228.188c9.052 0 16.383-7.331 16.383-16.383v-93.007c0-9.052-7.339-16.383-16.383-16.383s-16.383 7.331-16.383 16.383v30.121h-30.715v-30.121c0-9.052-7.339-16.383-16.383-16.383s-16.383 7.331-16.383 16.383v93.007c0 9.052 7.331 16.383 16.383 16.383 9.052 0 16.383-7.331 16.383-16.383v-30.121h30.715v30.121C161.245 220.858 168.575 228.188 177.627 228.188zM149.61 383.496c9.052 0 16.392-7.331 16.383-16.383v-35.731l32.357-48.135c5.05-7.517 3.053-17.696-4.455-22.746-7.499-5.023-17.687-3.044-22.737 4.455l-21.548 32.047-21.539-32.047c-5.05-7.499-15.229-9.478-22.737-4.455-7.508 5.059-9.505 15.229-4.455 22.746l32.348 48.134v35.732C133.227 376.165 140.558 383.496 149.61 383.496zM354.163 383.496c23.296 0 50.506-16.471 50.515-62.886v-46.503c0-9.052-7.331-16.383-16.383-16.383s-16.383 7.331-16.383 16.383v46.503c0 13.747-3.088 30.13-17.741 30.13s-17.723-16.383-17.723-30.13v-46.503c0-9.052-7.339-16.383-16.392-16.383-9.052 0-16.392 7.331-16.392 16.383v46.503C303.666 367.033 330.867 383.496 354.163 383.496zM246.983 257.723c-23.296 0-50.506 16.463-50.506 62.886 0 46.424 27.21 62.886 50.506 62.886s50.497-16.463 50.497-62.886S270.279 257.723 246.983 257.723zM246.983 350.739c-14.661 0-17.741-16.383-17.741-30.13s3.08-30.13 17.741-30.13c14.652 0 17.732 16.383 17.732 30.13S261.635 350.739 246.983 350.739zM108.431 421.329H75.985c-23.829 0-43.22-19.373-43.22-43.193v-120.19c0-9.052-7.339-16.383-16.383-16.383C7.339 241.563 0 248.893 0 257.945v120.19c0 41.889 34.088 75.959 75.994 75.959h32.446c9.043 0 16.374-7.331 16.374-16.383C124.814 428.659 117.483 421.329 108.431 421.329z"/><path d="M495.608 241.563c-9.052 0-16.383 7.331-16.383 16.383v120.19c0 23.811-19.382 43.193-43.22 43.193H244.401c-3.071 0-6.079.852-8.679 2.485l-67.625 42.253v-28.355c0-9.052-7.339-16.383-16.383-16.383-9.043 0-16.383 7.331-16.383 16.383v57.916c0 5.955 3.23 11.439 8.44 14.324 2.476 1.376 5.209 2.05 7.943 2.05 3.017 0 6.035-.825 8.679-2.485l88.712-55.423h186.901c41.906 0 75.994-34.07 75.994-75.959v-120.19C512 248.893 504.661 241.563 495.608 241.563zM16.392 92.37c9.043 0 16.383-7.331 16.383-16.383 0-23.82 19.382-43.211 43.22-43.211h360.021c23.829 0 43.22 19.382 43.22 43.211 0 9.043 7.331 16.374 16.383 16.374 9.043 0 16.383-7.331 16.392-16.374 0-41.898-34.088-75.976-75.994-75.976H75.994C34.088.011 0 34.09 0 75.987 0 85.03 7.348 92.37 16.392 92.37z"/></svg>